<svg xmlns="http://www.w3.org/2000/svg" width="375" viewBox="0 0 375 375" height="375" version="1.0"><defs><clipPath id="a"><path d="M 232 112.5 L 262.5 112.5 L 262.5 185 L 232 185 Z M 232 112.5"/></clipPath><clipPath id="b"><path d="M 232 190 L 262.5 190 L 262.5 262.5 L 232 262.5 Z M 232 190"/></clipPath><clipPath id="c"><path d="M 112.5 112.5 L 143 112.5 L 143 185 L 112.5 185 Z M 112.5 112.5"/></clipPath><clipPath id="d"><path d="M 112.5 190 L 143 190 L 143 262.5 L 112.5 262.5 Z M 112.5 190"/></clipPath></defs><path fill="#FFF" d="M-37.5 -37.5H412.5V412.5H-37.5z"/><path fill="#1F628E" d="M-37.5 -37.5H412.5V412.5H-37.5z"/><path fill="#FFF" d="M 187.5 242.5 C 173.757812 242.5 160.601562 237.40625 150.453125 228.152344 L 147.085938 231.847656 C 158.15625 241.941406 172.507812 247.5 187.5 247.5 C 202.492188 247.5 216.84375 241.941406 227.914062 231.847656 L 224.546875 228.152344 C 214.398438 237.40625 201.242188 242.5 187.5 242.5"/><path fill="#FFF" d="M 150.453125 146.847656 C 160.601562 137.59375 173.757812 132.5 187.5 132.5 C 201.242188 132.5 214.398438 137.59375 224.546875 146.847656 L 227.914062 143.152344 C 216.84375 133.058594 202.492188 127.5 187.5 127.5 C 172.507812 127.5 158.15625 133.058594 147.085938 143.152344 L 150.453125 146.847656"/><path fill="#FFF" d="M 218.363281 213.25 L 213.25 218.363281 L 204.453125 212.972656 L 193.511719 217.503906 L 191.113281 227.5 L 183.886719 227.5 L 181.488281 217.503906 L 170.546875 212.972656 L 161.746094 218.363281 L 156.636719 213.25 L 162.027344 204.453125 L 157.496094 193.511719 L 147.5 191.113281 L 147.5 183.886719 L 157.496094 181.488281 L 162.027344 170.546875 L 156.636719 161.746094 L 161.746094 156.636719 L 170.546875 162.027344 L 181.488281 157.496094 L 183.886719 147.5 L 191.113281 147.5 L 193.511719 157.496094 L 204.453125 162.027344 L 213.25 156.636719 L 218.363281 161.746094 L 212.972656 170.546875 L 217.503906 181.488281 L 227.5 183.886719 L 227.5 191.113281 L 217.503906 193.511719 L 212.972656 204.453125 Z M 232.5 195.058594 L 232.5 179.941406 L 221.148438 177.21875 L 218.566406 170.988281 L 224.6875 161 L 214 150.3125 L 204.011719 156.433594 L 197.78125 153.851562 L 195.058594 142.5 L 179.941406 142.5 L 177.21875 153.851562 L 170.988281 156.433594 L 161 150.3125 L 150.3125 161 L 156.433594 170.988281 L 153.851562 177.21875 L 142.5 179.941406 L 142.5 195.058594 L 153.851562 197.78125 L 156.433594 204.011719 L 150.3125 214 L 161 224.6875 L 170.988281 218.566406 L 177.21875 221.148438 L 179.941406 232.5 L 195.058594 232.5 L 197.78125 221.148438 L 204.011719 218.566406 L 214 224.6875 L 224.6875 214 L 218.566406 204.011719 L 221.148438 197.78125 L 232.5 195.058594"/><path fill="#FFF" d="M 187.5 202.5 C 179.226562 202.5 172.5 195.769531 172.5 187.5 C 172.5 179.226562 179.226562 172.5 187.5 172.5 C 195.769531 172.5 202.5 179.226562 202.5 187.5 C 202.5 195.769531 195.769531 202.5 187.5 202.5 Z M 187.5 167.5 C 176.472656 167.5 167.5 176.472656 167.5 187.5 C 167.5 198.527344 176.472656 207.5 187.5 207.5 C 198.527344 207.5 207.5 198.527344 207.5 187.5 C 207.5 176.472656 198.527344 167.5 187.5 167.5"/><g clip-path="url(#a)"><path fill="#FFF" d="M 257.5 155.953125 L 252.664062 158.371094 L 250.261719 180 L 244.738281 180 L 242.332031 158.371094 L 237.5 155.953125 L 237.5 150.742188 C 237.5 143.304688 241.335938 136.511719 247.5 132.644531 C 253.664062 136.511719 257.5 143.304688 257.5 150.742188 Z M 245 120 C 245 118.621094 246.121094 117.5 247.5 117.5 C 248.878906 117.5 250 118.621094 250 120 L 250 124.203125 C 250 125.203125 249.40625 126.105469 248.484375 126.5 C 248.152344 126.644531 247.824219 126.792969 247.5 126.945312 C 247.175781 126.792969 246.847656 126.644531 246.515625 126.5 C 245.59375 126.105469 245 125.203125 245 124.203125 Z M 252.339844 129.933594 C 254 128.535156 255 126.453125 255 124.203125 L 255 120 C 255 115.863281 251.636719 112.5 247.5 112.5 C 243.363281 112.5 240 115.863281 240 120 L 240 124.203125 C 240 126.453125 241 128.535156 242.660156 129.933594 C 236.339844 134.855469 232.5 142.476562 232.5 150.742188 L 232.5 159.046875 L 237.664062 161.628906 L 240.261719 185 L 254.738281 185 L 257.335938 161.628906 L 262.5 159.046875 L 262.5 150.742188 C 262.5 142.476562 258.660156 134.855469 252.339844 129.933594"/></g><g clip-path="url(#b)"><path fill="#FFF" d="M 257.5 233.453125 L 252.664062 235.871094 L 250.261719 257.5 L 244.738281 257.5 L 242.332031 235.871094 L 237.5 233.453125 L 237.5 228.242188 C 237.5 220.804688 241.335938 214.011719 247.5 210.144531 C 253.664062 214.011719 257.5 220.804688 257.5 228.242188 Z M 245 197.5 C 245 196.121094 246.121094 195 247.5 195 C 248.878906 195 250 196.121094 250 197.5 L 250 201.703125 C 250 202.703125 249.40625 203.605469 248.484375 204 C 248.152344 204.144531 247.824219 204.292969 247.5 204.445312 C 247.175781 204.292969 246.847656 204.144531 246.515625 204 C 245.59375 203.605469 245 202.703125 245 201.703125 Z M 252.339844 207.433594 C 254 206.035156 255 203.953125 255 201.703125 L 255 197.5 C 255 193.363281 251.636719 190 247.5 190 C 243.363281 190 240 193.363281 240 197.5 L 240 201.703125 C 240 203.953125 241 206.035156 242.660156 207.433594 C 236.339844 212.355469 232.5 219.976562 232.5 228.242188 L 232.5 236.546875 L 237.664062 239.128906 L 240.261719 262.5 L 254.738281 262.5 L 257.335938 239.128906 L 262.5 236.546875 L 262.5 228.242188 C 262.5 219.976562 258.660156 212.355469 252.339844 207.433594"/></g><g clip-path="url(#c)"><path fill="#FFF" d="M 117.5 150.742188 C 117.5 143.304688 121.335938 136.511719 127.5 132.644531 C 133.664062 136.511719 137.5 143.304688 137.5 150.742188 L 137.5 155.953125 L 132.664062 158.371094 L 130.261719 180 L 124.738281 180 L 122.332031 158.371094 L 117.5 155.953125 Z M 125 120 C 125 118.621094 126.121094 117.5 127.5 117.5 C 128.878906 117.5 130 118.621094 130 120 L 130 124.203125 C 130 125.203125 129.40625 126.105469 128.484375 126.5 C 128.152344 126.644531 127.824219 126.792969 127.5 126.945312 C 127.175781 126.792969 126.847656 126.644531 126.515625 126.5 C 125.59375 126.105469 125 125.203125 125 124.203125 Z M 120.261719 185 L 134.738281 185 L 137.332031 161.628906 L 142.5 159.046875 L 142.5 150.742188 C 142.5 142.476562 138.660156 134.855469 132.339844 129.933594 C 134 128.535156 135 126.453125 135 124.203125 L 135 120 C 135 115.863281 131.636719 112.5 127.5 112.5 C 123.363281 112.5 120 115.863281 120 120 L 120 124.203125 C 120 126.453125 121 128.535156 122.660156 129.933594 C 116.339844 134.855469 112.5 142.476562 112.5 150.742188 L 112.5 159.046875 L 117.664062 161.628906 L 120.261719 185"/></g><g clip-path="url(#d)"><path fill="#FFF" d="M 117.5 228.242188 C 117.5 220.804688 121.335938 214.011719 127.5 210.144531 C 133.664062 214.011719 137.5 220.804688 137.5 228.242188 L 137.5 233.453125 L 132.664062 235.871094 L 130.261719 257.5 L 124.738281 257.5 L 122.332031 235.871094 L 117.5 233.453125 Z M 125 197.5 C 125 196.121094 126.121094 195 127.5 195 C 128.878906 195 130 196.121094 130 197.5 L 130 201.703125 C 130 202.703125 129.40625 203.605469 128.484375 204 C 128.152344 204.144531 127.824219 204.292969 127.5 204.445312 C 127.175781 204.292969 126.847656 204.144531 126.515625 204 C 125.59375 203.605469 125 202.703125 125 201.703125 Z M 120.261719 262.5 L 134.738281 262.5 L 137.332031 239.128906 L 142.5 236.546875 L 142.5 228.242188 C 142.5 219.976562 138.660156 212.355469 132.339844 207.433594 C 134 206.035156 135 203.953125 135 201.703125 L 135 197.5 C 135 193.363281 131.636719 190 127.5 190 C 123.363281 190 120 193.363281 120 197.5 L 120 201.703125 C 120 203.953125 121 206.035156 122.660156 207.433594 C 116.339844 212.355469 112.5 219.976562 112.5 228.242188 L 112.5 236.546875 L 117.664062 239.128906 L 120.261719 262.5"/></g></svg>