<svg xmlns="http://www.w3.org/2000/svg" width="375" viewBox="0 0 375 375" height="375" version="1.0"><defs><clipPath id="a"><path d="M 113 114.9375 L 259 114.9375 L 259 260.4375 L 113 260.4375 Z M 113 114.9375"/></clipPath></defs><path fill="#FFF" d="M-37.5 -37.5H412.5V412.5H-37.5z"/><path fill="#1F628E" d="M-37.5 -37.5H412.5V412.5H-37.5z"/><path fill="#FFF" d="M 142.074219 155.988281 C 142.394531 155.988281 142.703125 155.925781 143 155.804688 C 143.296875 155.679688 143.558594 155.503906 143.785156 155.277344 C 144.011719 155.050781 144.1875 154.785156 144.3125 154.488281 C 144.433594 154.191406 144.496094 153.882812 144.496094 153.558594 L 144.496094 151.128906 C 144.496094 150.808594 144.433594 150.5 144.3125 150.199219 C 144.1875 149.902344 144.011719 149.640625 143.785156 149.414062 C 143.558594 149.183594 143.296875 149.007812 143 148.886719 C 142.703125 148.761719 142.394531 148.703125 142.074219 148.703125 C 141.75 148.703125 141.441406 148.761719 141.144531 148.886719 C 140.847656 149.007812 140.585938 149.183594 140.359375 149.414062 C 140.132812 149.640625 139.957031 149.902344 139.835938 150.199219 C 139.710938 150.5 139.648438 150.808594 139.648438 151.128906 L 139.648438 153.558594 C 139.648438 153.882812 139.710938 154.191406 139.835938 154.488281 C 139.957031 154.785156 140.132812 155.050781 140.359375 155.277344 C 140.585938 155.503906 140.847656 155.679688 141.144531 155.804688 C 141.441406 155.925781 141.75 155.988281 142.074219 155.988281 Z M 142.074219 155.988281"/><path fill="#FFF" d="M 156.609375 148.703125 C 156.289062 148.703125 155.980469 148.761719 155.683594 148.886719 C 155.386719 149.007812 155.125 149.183594 154.894531 149.414062 C 154.667969 149.640625 154.492188 149.902344 154.371094 150.199219 C 154.25 150.5 154.1875 150.808594 154.1875 151.128906 L 154.1875 153.558594 C 154.1875 153.882812 154.25 154.191406 154.371094 154.488281 C 154.492188 154.785156 154.667969 155.050781 154.894531 155.277344 C 155.125 155.503906 155.386719 155.679688 155.683594 155.804688 C 155.980469 155.925781 156.289062 155.988281 156.609375 155.988281 C 156.929688 155.988281 157.238281 155.925781 157.535156 155.804688 C 157.832031 155.679688 158.09375 155.503906 158.324219 155.277344 C 158.550781 155.050781 158.726562 154.785156 158.847656 154.488281 C 158.972656 154.191406 159.03125 153.882812 159.03125 153.558594 L 159.03125 151.128906 C 159.03125 150.808594 158.972656 150.5 158.847656 150.199219 C 158.726562 149.902344 158.550781 149.640625 158.324219 149.414062 C 158.09375 149.183594 157.832031 149.007812 157.535156 148.886719 C 157.238281 148.761719 156.929688 148.703125 156.609375 148.703125 Z M 156.609375 148.703125"/><path fill="#FFF" d="M 149.339844 168.132812 C 146.382812 168.132812 144.496094 166.695312 144.496094 165.703125 L 139.648438 165.703125 C 139.648438 169.792969 143.90625 172.992188 149.339844 172.992188 C 154.777344 172.992188 159.03125 169.792969 159.03125 165.703125 L 154.1875 165.703125 C 154.1875 166.695312 152.300781 168.132812 149.339844 168.132812 Z M 149.339844 168.132812"/><g clip-path="url(#a)"><path fill="#FFF" d="M 214.757812 163.277344 C 211.5 163.273438 208.285156 163.636719 205.113281 164.359375 C 201.9375 165.082031 198.882812 166.148438 195.949219 167.558594 C 193.015625 168.96875 190.269531 170.691406 187.722656 172.71875 C 185.171875 174.746094 182.875 177.03125 180.835938 179.574219 L 180.835938 146.273438 C 180.835938 145.238281 180.785156 144.207031 180.6875 143.175781 C 180.585938 142.148438 180.433594 141.125 180.230469 140.113281 C 180.03125 139.097656 179.78125 138.09375 179.480469 137.105469 C 179.183594 136.117188 178.835938 135.144531 178.441406 134.1875 C 178.046875 133.234375 177.605469 132.296875 177.117188 131.386719 C 176.632812 130.472656 176.101562 129.589844 175.527344 128.730469 C 174.957031 127.867188 174.34375 127.039062 173.6875 126.238281 C 173.035156 125.441406 172.339844 124.675781 171.613281 123.945312 C 170.882812 123.210938 170.121094 122.519531 169.320312 121.863281 C 168.523438 121.207031 167.695312 120.589844 166.839844 120.015625 C 165.980469 119.441406 165.097656 118.910156 164.1875 118.421875 C 163.277344 117.9375 162.347656 117.492188 161.394531 117.097656 C 160.441406 116.703125 159.472656 116.355469 158.484375 116.054688 C 157.496094 115.753906 156.496094 115.503906 155.484375 115.300781 C 154.472656 115.097656 153.453125 114.949219 152.429688 114.847656 C 151.402344 114.746094 150.371094 114.695312 149.339844 114.695312 C 148.308594 114.695312 147.28125 114.746094 146.253906 114.847656 C 145.226562 114.949219 144.207031 115.097656 143.195312 115.300781 C 142.183594 115.503906 141.183594 115.753906 140.199219 116.054688 C 139.210938 116.355469 138.242188 116.703125 137.289062 117.097656 C 136.335938 117.492188 135.402344 117.9375 134.492188 118.421875 C 133.585938 118.910156 132.699219 119.441406 131.84375 120.015625 C 130.984375 120.589844 130.15625 121.207031 129.359375 121.863281 C 128.5625 122.519531 127.800781 123.210938 127.070312 123.945312 C 126.339844 124.675781 125.648438 125.441406 124.996094 126.238281 C 124.339844 127.039062 123.726562 127.867188 123.152344 128.730469 C 122.578125 129.589844 122.050781 130.472656 121.5625 131.386719 C 121.078125 132.296875 120.636719 133.234375 120.242188 134.1875 C 119.847656 135.144531 119.5 136.117188 119.199219 137.105469 C 118.902344 138.09375 118.652344 139.097656 118.449219 140.113281 C 118.25 141.125 118.097656 142.148438 117.996094 143.175781 C 117.894531 144.207031 117.84375 145.238281 117.84375 146.273438 L 117.84375 196.285156 C 116.300781 197.867188 115.105469 199.679688 114.269531 201.726562 C 113.429688 203.773438 113.007812 205.902344 113 208.117188 L 113 258.007812 C 113 258.332031 113.0625 258.640625 113.183594 258.9375 C 113.308594 259.234375 113.480469 259.5 113.707031 259.726562 C 113.9375 259.953125 114.199219 260.128906 114.496094 260.253906 C 114.792969 260.375 115.101562 260.4375 115.421875 260.4375 L 183.261719 260.4375 C 183.582031 260.4375 183.890625 260.375 184.1875 260.253906 C 184.484375 260.128906 184.746094 259.953125 184.972656 259.726562 C 185.199219 259.5 185.375 259.234375 185.5 258.9375 C 185.621094 258.640625 185.683594 258.332031 185.683594 258.007812 L 185.683594 239.5 C 186.335938 240.085938 187.007812 240.65625 187.699219 241.203125 C 188.386719 241.753906 189.09375 242.277344 189.8125 242.785156 C 190.535156 243.289062 191.269531 243.773438 192.019531 244.234375 C 192.769531 244.695312 193.53125 245.132812 194.308594 245.546875 C 195.085938 245.960938 195.875 246.351562 196.675781 246.714844 C 197.472656 247.082031 198.285156 247.425781 199.105469 247.742188 C 199.925781 248.058594 200.753906 248.351562 201.59375 248.617188 C 202.429688 248.886719 203.277344 249.125 204.128906 249.34375 C 204.984375 249.558594 205.839844 249.746094 206.707031 249.910156 C 207.570312 250.074219 208.4375 250.210938 209.3125 250.320312 C 210.183594 250.433594 211.058594 250.515625 211.9375 250.574219 C 212.8125 250.632812 213.691406 250.664062 214.570312 250.667969 C 215.453125 250.671875 216.332031 250.648438 217.207031 250.601562 C 218.085938 250.550781 218.960938 250.476562 219.835938 250.375 C 220.710938 250.269531 221.578125 250.144531 222.445312 249.988281 C 223.3125 249.832031 224.171875 249.652344 225.027344 249.445312 C 225.882812 249.238281 226.730469 249.003906 227.570312 248.746094 C 228.410156 248.488281 229.242188 248.203125 230.066406 247.894531 C 230.890625 247.585938 231.703125 247.25 232.507812 246.890625 C 233.3125 246.535156 234.101562 246.152344 234.882812 245.746094 C 235.664062 245.335938 236.429688 244.90625 237.1875 244.453125 C 237.941406 244 238.679688 243.527344 239.40625 243.027344 C 240.132812 242.53125 240.839844 242.011719 241.535156 241.46875 C 242.230469 240.925781 242.90625 240.367188 243.566406 239.785156 C 244.230469 239.199219 244.871094 238.597656 245.496094 237.976562 C 246.121094 237.355469 246.722656 236.714844 247.308594 236.058594 C 247.894531 235.402344 248.460938 234.726562 249.003906 234.03125 C 249.550781 233.339844 250.074219 232.632812 250.574219 231.910156 C 251.078125 231.183594 251.554688 230.445312 252.011719 229.691406 C 252.472656 228.9375 252.90625 228.171875 253.316406 227.394531 C 253.726562 226.613281 254.113281 225.824219 254.476562 225.019531 C 254.839844 224.214844 255.179688 223.402344 255.492188 222.578125 C 255.808594 221.753906 256.097656 220.921875 256.359375 220.082031 C 256.625 219.242188 256.863281 218.390625 257.074219 217.535156 C 257.289062 216.679688 257.476562 215.820312 257.636719 214.953125 C 257.796875 214.085938 257.929688 213.214844 258.039062 212.339844 C 258.148438 211.464844 258.226562 210.585938 258.28125 209.707031 C 258.339844 208.828125 258.367188 207.945312 258.367188 207.0625 C 258.371094 206.183594 258.34375 205.300781 258.292969 204.421875 C 258.242188 203.539062 258.164062 202.664062 258.0625 201.789062 C 257.957031 200.910156 257.824219 200.039062 257.667969 199.171875 C 257.511719 198.304688 257.328125 197.441406 257.121094 196.585938 C 256.910156 195.730469 256.675781 194.878906 256.414062 194.039062 C 256.15625 193.195312 255.871094 192.363281 255.558594 191.539062 C 255.25 190.710938 254.914062 189.898438 254.554688 189.09375 C 254.195312 188.289062 253.808594 187.496094 253.402344 186.714844 C 252.996094 185.933594 252.5625 185.164062 252.109375 184.410156 C 251.65625 183.652344 251.179688 182.914062 250.679688 182.1875 C 250.179688 181.460938 249.660156 180.75 249.117188 180.054688 C 248.578125 179.359375 248.015625 178.683594 247.433594 178.023438 C 246.847656 177.363281 246.246094 176.71875 245.625 176.097656 C 245.003906 175.472656 244.363281 174.867188 243.707031 174.28125 C 243.046875 173.699219 242.375 173.132812 241.679688 172.589844 C 240.988281 172.042969 240.28125 171.523438 239.558594 171.019531 C 238.835938 170.519531 238.097656 170.039062 237.34375 169.585938 C 236.589844 169.128906 235.824219 168.695312 235.046875 168.285156 C 234.269531 167.875 233.476562 167.488281 232.675781 167.125 C 231.875 166.765625 231.0625 166.425781 230.238281 166.113281 C 229.417969 165.800781 228.585938 165.515625 227.746094 165.253906 C 226.90625 164.988281 226.058594 164.753906 225.207031 164.542969 C 224.351562 164.332031 223.492188 164.148438 222.625 163.988281 C 221.761719 163.828125 220.890625 163.699219 220.019531 163.589844 C 219.144531 163.484375 218.269531 163.40625 217.390625 163.355469 C 216.515625 163.300781 215.636719 163.273438 214.757812 163.277344 Z M 122.691406 146.273438 C 122.691406 145.398438 122.734375 144.523438 122.820312 143.652344 C 122.90625 142.78125 123.03125 141.917969 123.203125 141.058594 C 123.371094 140.203125 123.585938 139.351562 123.839844 138.515625 C 124.089844 137.679688 124.386719 136.855469 124.71875 136.046875 C 125.054688 135.238281 125.425781 134.449219 125.835938 133.675781 C 126.25 132.90625 126.695312 132.15625 127.183594 131.425781 C 127.667969 130.699219 128.1875 129.996094 128.738281 129.320312 C 129.292969 128.644531 129.878906 127.996094 130.496094 127.378906 C 131.113281 126.761719 131.757812 126.171875 132.433594 125.617188 C 133.109375 125.0625 133.808594 124.542969 134.535156 124.054688 C 135.261719 123.570312 136.007812 123.121094 136.777344 122.707031 C 137.546875 122.296875 138.335938 121.921875 139.140625 121.585938 C 139.949219 121.25 140.769531 120.957031 141.605469 120.703125 C 142.441406 120.449219 143.285156 120.238281 144.140625 120.066406 C 144.996094 119.894531 145.859375 119.765625 146.730469 119.679688 C 147.597656 119.59375 148.46875 119.550781 149.339844 119.550781 C 150.214844 119.550781 151.085938 119.59375 151.953125 119.679688 C 152.820312 119.765625 153.683594 119.894531 154.539062 120.066406 C 155.394531 120.238281 156.242188 120.449219 157.078125 120.703125 C 157.914062 120.957031 158.734375 121.25 159.539062 121.585938 C 160.347656 121.921875 161.132812 122.296875 161.902344 122.707031 C 162.675781 123.121094 163.421875 123.570312 164.148438 124.054688 C 164.875 124.542969 165.574219 125.0625 166.25 125.617188 C 166.921875 126.171875 167.570312 126.761719 168.1875 127.378906 C 168.804688 127.996094 169.386719 128.644531 169.941406 129.320312 C 170.496094 129.996094 171.015625 130.699219 171.5 131.425781 C 171.984375 132.15625 172.433594 132.90625 172.84375 133.675781 C 173.257812 134.449219 173.628906 135.238281 173.964844 136.046875 C 174.296875 136.855469 174.589844 137.679688 174.84375 138.515625 C 175.097656 139.351562 175.308594 140.203125 175.480469 141.058594 C 175.648438 141.917969 175.777344 142.78125 175.863281 143.652344 C 175.949219 144.523438 175.992188 145.398438 175.992188 146.273438 L 175.992188 187.054688 C 175.191406 188.644531 174.480469 190.273438 173.859375 191.9375 C 173.785156 191.914062 173.691406 191.867188 173.59375 191.839844 L 168.359375 190.261719 C 167.863281 190.113281 167.382812 189.929688 166.914062 189.703125 C 166.449219 189.480469 166.003906 189.21875 165.578125 188.921875 C 165.152344 188.621094 164.753906 188.292969 164.382812 187.933594 C 164.011719 187.570312 163.671875 187.179688 163.359375 186.765625 C 163.050781 186.347656 162.777344 185.910156 162.539062 185.449219 C 162.300781 184.988281 162.101562 184.511719 161.9375 184.015625 C 161.777344 183.523438 161.65625 183.019531 161.574219 182.507812 C 161.492188 181.996094 161.453125 181.476562 161.453125 180.960938 L 161.453125 179.015625 C 162.445312 178.347656 163.382812 177.613281 164.265625 176.804688 C 165.347656 175.777344 166.316406 174.652344 167.171875 173.429688 C 168.027344 172.203125 168.75 170.90625 169.339844 169.535156 C 169.933594 168.164062 170.382812 166.746094 170.683594 165.28125 C 170.988281 163.820312 171.140625 162.339844 171.144531 160.847656 L 171.144531 141.414062 C 171.144531 140.9375 171.097656 140.460938 171.003906 139.992188 C 170.910156 139.523438 170.769531 139.070312 170.585938 138.628906 C 170.402344 138.1875 170.179688 137.769531 169.914062 137.371094 C 169.648438 136.972656 169.347656 136.605469 169.011719 136.269531 C 168.671875 135.929688 168.308594 135.628906 167.910156 135.363281 C 167.515625 135.097656 167.097656 134.871094 166.65625 134.6875 C 166.214844 134.503906 165.761719 134.363281 165.292969 134.269531 C 164.828125 134.175781 164.355469 134.128906 163.878906 134.128906 L 160.753906 134.128906 C 159.707031 134.121094 158.691406 133.941406 157.703125 133.585938 C 156.71875 133.234375 155.820312 132.726562 155.011719 132.0625 C 154.710938 131.808594 154.371094 131.640625 153.992188 131.558594 C 153.609375 131.476562 153.230469 131.492188 152.855469 131.601562 C 152.476562 131.703125 152.144531 131.882812 151.855469 132.144531 C 151.5625 132.40625 151.347656 132.71875 151.207031 133.082031 C 150.886719 133.945312 150.441406 134.738281 149.878906 135.46875 C 149.316406 136.195312 148.660156 136.820312 147.90625 137.347656 C 147.152344 137.875 146.339844 138.277344 145.464844 138.558594 C 144.589844 138.835938 143.695312 138.980469 142.773438 138.984375 L 134.804688 138.984375 C 134.328125 138.988281 133.855469 139.035156 133.386719 139.128906 C 132.921875 139.222656 132.464844 139.363281 132.027344 139.546875 C 131.585938 139.730469 131.167969 139.953125 130.769531 140.21875 C 130.375 140.484375 130.007812 140.789062 129.671875 141.125 C 129.335938 141.464844 129.03125 141.832031 128.769531 142.230469 C 128.503906 142.625 128.277344 143.046875 128.09375 143.488281 C 127.910156 143.929688 127.773438 144.382812 127.679688 144.851562 C 127.585938 145.320312 127.539062 145.792969 127.535156 146.273438 L 127.535156 160.191406 C 127.53125 162.027344 127.746094 163.835938 128.175781 165.617188 C 128.609375 167.402344 129.246094 169.105469 130.089844 170.734375 C 130.933594 172.363281 131.960938 173.867188 133.167969 175.246094 C 134.375 176.628906 135.726562 177.84375 137.226562 178.894531 L 137.226562 180.960938 C 137.230469 181.476562 137.191406 181.996094 137.109375 182.507812 C 137.027344 183.019531 136.90625 183.523438 136.746094 184.015625 C 136.582031 184.511719 136.382812 184.988281 136.144531 185.449219 C 135.90625 185.910156 135.628906 186.347656 135.320312 186.765625 C 135.011719 187.179688 134.671875 187.570312 134.300781 187.933594 C 133.929688 188.292969 133.53125 188.621094 133.105469 188.921875 C 132.679688 189.21875 132.234375 189.480469 131.765625 189.703125 C 131.300781 189.929688 130.820312 190.113281 130.320312 190.261719 L 125.089844 191.839844 C 124.269531 192.105469 123.46875 192.421875 122.691406 192.789062 Z M 149.339844 192.253906 L 139.820312 188.683594 C 141.214844 186.464844 141.949219 184.042969 142.023438 181.421875 C 143.925781 182.121094 145.890625 182.535156 147.910156 182.660156 C 148.394531 182.683594 148.878906 182.707031 149.367188 182.707031 C 151.867188 182.707031 154.300781 182.285156 156.65625 181.445312 C 156.734375 184.058594 157.46875 186.472656 158.863281 188.683594 Z M 151.691406 200.632812 L 150.550781 202.140625 L 148.128906 202.140625 L 146.992188 200.632812 L 149.339844 198.277344 Z M 144.957031 195.800781 L 138.171875 202.601562 L 134.804688 193.542969 C 135.3125 193.226562 135.847656 192.910156 136.332031 192.546875 Z M 132.382812 160.191406 L 132.382812 146.273438 C 132.382812 145.949219 132.441406 145.640625 132.566406 145.34375 C 132.6875 145.046875 132.863281 144.78125 133.089844 144.554688 C 133.320312 144.328125 133.582031 144.152344 133.878906 144.027344 C 134.175781 143.90625 134.484375 143.84375 134.804688 143.84375 L 142.773438 143.84375 C 143.933594 143.839844 145.078125 143.691406 146.199219 143.402344 C 147.324219 143.113281 148.394531 142.6875 149.410156 142.128906 C 150.425781 141.574219 151.359375 140.898438 152.210938 140.105469 C 153.058594 139.316406 153.800781 138.429688 154.429688 137.453125 C 156.414062 138.476562 158.523438 138.984375 160.753906 138.984375 L 163.878906 138.984375 C 164.199219 138.984375 164.507812 139.046875 164.804688 139.171875 C 165.101562 139.292969 165.363281 139.46875 165.589844 139.695312 C 165.816406 139.925781 165.992188 140.1875 166.117188 140.484375 C 166.238281 140.78125 166.300781 141.09375 166.300781 141.414062 L 166.300781 160.847656 C 166.300781 161.425781 166.273438 162.007812 166.214844 162.582031 C 166.15625 163.160156 166.066406 163.734375 165.949219 164.300781 C 165.832031 164.871094 165.6875 165.433594 165.511719 165.984375 C 165.335938 166.539062 165.132812 167.082031 164.90625 167.613281 C 164.675781 168.148438 164.417969 168.667969 164.136719 169.171875 C 163.851562 169.679688 163.542969 170.171875 163.210938 170.644531 C 162.878906 171.121094 162.519531 171.574219 162.140625 172.015625 C 161.761719 172.453125 161.359375 172.871094 160.9375 173.265625 C 160.515625 173.664062 160.074219 174.039062 159.613281 174.390625 C 159.152344 174.742188 158.675781 175.066406 158.179688 175.371094 C 157.6875 175.671875 157.175781 175.949219 156.65625 176.199219 C 156.132812 176.449219 155.597656 176.671875 155.054688 176.867188 C 154.507812 177.0625 153.953125 177.230469 153.394531 177.371094 C 152.832031 177.507812 152.261719 177.617188 151.6875 177.699219 C 151.117188 177.777344 150.539062 177.828125 149.960938 177.851562 C 149.382812 177.871094 148.804688 177.863281 148.226562 177.824219 C 147.140625 177.730469 146.074219 177.535156 145.027344 177.238281 C 143.980469 176.941406 142.96875 176.550781 141.996094 176.0625 C 141.019531 175.578125 140.101562 175.003906 139.234375 174.34375 C 138.367188 173.683594 137.570312 172.945312 136.839844 172.136719 C 136.113281 171.324219 135.464844 170.453125 134.898438 169.519531 C 134.335938 168.585938 133.863281 167.609375 133.480469 166.585938 C 133.097656 165.566406 132.816406 164.515625 132.628906 163.441406 C 132.445312 162.367188 132.363281 161.28125 132.382812 160.191406 Z M 162.375 192.546875 C 162.859375 192.90625 163.359375 193.238281 163.878906 193.542969 L 160.511719 202.601562 L 153.726562 195.800781 Z M 128.214844 255.578125 L 129.886719 248.875 C 129.933594 248.683594 129.957031 248.488281 129.957031 248.292969 L 129.957031 238.574219 C 129.964844 238.351562 129.933594 238.132812 129.863281 237.921875 L 126.179688 224.949219 C 125.898438 223.984375 125.824219 223 125.957031 222.003906 C 126.085938 221.007812 126.410156 220.078125 126.929688 219.214844 L 132.042969 210.667969 L 127.875 208.1875 L 122.789062 216.714844 C 121.925781 218.152344 121.386719 219.707031 121.167969 221.367188 C 120.949219 223.03125 121.070312 224.671875 121.527344 226.285156 L 125.113281 238.917969 L 125.113281 248 L 123.222656 255.578125 L 117.84375 255.578125 L 117.84375 208.117188 C 117.851562 206.390625 118.207031 204.742188 118.910156 203.167969 C 119.613281 201.59375 120.609375 200.230469 121.890625 199.078125 C 123.226562 197.863281 124.761719 197.007812 126.496094 196.503906 L 130.296875 195.363281 L 134.949219 207.847656 C 135.097656 208.238281 135.328125 208.566406 135.640625 208.839844 C 135.953125 209.109375 136.3125 209.289062 136.71875 209.378906 C 136.886719 209.40625 137.054688 209.421875 137.226562 209.425781 C 137.898438 209.429688 138.46875 209.195312 138.949219 208.722656 L 143.527344 204.109375 L 144.375 205.226562 L 137.542969 255.578125 Z M 142.4375 255.578125 L 149.027344 207 L 149.65625 207 L 156.246094 255.578125 Z M 172.503906 224.949219 L 168.820312 237.921875 C 168.75 238.132812 168.71875 238.351562 168.722656 238.574219 L 168.722656 248.292969 C 168.722656 248.488281 168.746094 248.683594 168.796875 248.875 L 170.46875 255.578125 L 161.140625 255.578125 L 154.308594 205.226562 L 155.15625 204.109375 L 159.734375 208.722656 C 160.210938 209.195312 160.785156 209.429688 161.453125 209.425781 C 161.625 209.421875 161.796875 209.40625 161.964844 209.378906 C 162.367188 209.289062 162.726562 209.109375 163.042969 208.839844 C 163.355469 208.566406 163.585938 208.238281 163.734375 207.847656 L 168.382812 195.363281 L 172.210938 196.503906 L 172.453125 196.578125 C 171.597656 200 171.160156 203.472656 171.144531 207 C 171.144531 207.652344 171.21875 208.285156 171.242188 208.917969 L 170.808594 208.1875 L 166.640625 210.667969 L 171.75 219.214844 C 172.269531 220.078125 172.59375 221.007812 172.726562 222.003906 C 172.855469 223 172.78125 223.984375 172.503906 224.949219 Z M 180.835938 255.578125 L 175.457031 255.578125 L 173.570312 248 L 173.570312 238.917969 L 176.621094 228.179688 C 177.855469 230.378906 179.257812 232.457031 180.835938 234.421875 Z M 214.757812 245.863281 C 213.488281 245.863281 212.21875 245.800781 210.957031 245.675781 C 209.691406 245.550781 208.4375 245.363281 207.195312 245.117188 C 205.949219 244.867188 204.71875 244.558594 203.503906 244.191406 C 202.289062 243.820312 201.09375 243.390625 199.921875 242.90625 C 198.75 242.417969 197.601562 241.875 196.484375 241.273438 C 195.363281 240.675781 194.277344 240.019531 193.21875 239.3125 C 192.164062 238.605469 191.144531 237.847656 190.164062 237.042969 C 189.183594 236.234375 188.242188 235.378906 187.34375 234.480469 C 186.449219 233.578125 185.597656 232.636719 184.789062 231.652344 C 183.984375 230.671875 183.230469 229.648438 182.523438 228.589844 C 181.820312 227.53125 181.167969 226.441406 180.570312 225.320312 C 179.96875 224.195312 179.429688 223.046875 178.941406 221.871094 C 178.457031 220.695312 178.03125 219.5 177.660156 218.28125 C 177.292969 217.0625 176.984375 215.828125 176.738281 214.582031 C 176.488281 213.332031 176.304688 212.074219 176.179688 210.808594 C 176.054688 209.542969 175.992188 208.269531 175.992188 207 C 175.992188 205.726562 176.054688 204.457031 176.179688 203.1875 C 176.304688 201.921875 176.488281 200.664062 176.738281 199.417969 C 176.984375 198.167969 177.292969 196.933594 177.660156 195.714844 C 178.03125 194.5 178.457031 193.300781 178.941406 192.125 C 179.429688 190.949219 179.96875 189.800781 180.570312 188.675781 C 181.167969 187.554688 181.820312 186.464844 182.523438 185.40625 C 183.230469 184.347656 183.984375 183.328125 184.789062 182.34375 C 185.597656 181.359375 186.449219 180.417969 187.34375 179.515625 C 188.242188 178.617188 189.183594 177.761719 190.164062 176.957031 C 191.144531 176.148438 192.164062 175.390625 193.21875 174.683594 C 194.277344 173.976562 195.363281 173.324219 196.484375 172.722656 C 197.601562 172.121094 198.75 171.578125 199.921875 171.09375 C 201.09375 170.605469 202.289062 170.175781 203.503906 169.808594 C 204.71875 169.4375 205.949219 169.128906 207.195312 168.878906 C 208.4375 168.632812 209.691406 168.445312 210.957031 168.320312 C 212.21875 168.195312 213.488281 168.132812 214.757812 168.132812 C 216.027344 168.132812 217.292969 168.195312 218.554688 168.320312 C 219.820312 168.445312 221.074219 168.632812 222.320312 168.878906 C 223.5625 169.128906 224.792969 169.4375 226.007812 169.808594 C 227.222656 170.175781 228.417969 170.605469 229.589844 171.09375 C 230.765625 171.578125 231.910156 172.121094 233.03125 172.722656 C 234.148438 173.324219 235.238281 173.976562 236.292969 174.683594 C 237.347656 175.390625 238.367188 176.148438 239.347656 176.957031 C 240.328125 177.761719 241.269531 178.617188 242.167969 179.515625 C 243.066406 180.417969 243.917969 181.359375 244.722656 182.34375 C 245.527344 183.328125 246.28125 184.347656 246.988281 185.40625 C 247.691406 186.464844 248.34375 187.554688 248.945312 188.675781 C 249.542969 189.800781 250.085938 190.949219 250.570312 192.125 C 251.054688 193.300781 251.484375 194.5 251.851562 195.714844 C 252.21875 196.933594 252.527344 198.167969 252.777344 199.417969 C 253.023438 200.664062 253.210938 201.921875 253.335938 203.1875 C 253.457031 204.457031 253.519531 205.726562 253.519531 207 C 253.519531 208.269531 253.457031 209.539062 253.328125 210.804688 C 253.203125 212.074219 253.015625 213.328125 252.769531 214.578125 C 252.519531 215.824219 252.210938 217.058594 251.839844 218.273438 C 251.472656 219.492188 251.042969 220.6875 250.554688 221.863281 C 250.070312 223.039062 249.527344 224.1875 248.929688 225.308594 C 248.328125 226.429688 247.679688 227.519531 246.972656 228.578125 C 246.265625 229.636719 245.511719 230.65625 244.707031 231.640625 C 243.902344 232.625 243.050781 233.566406 242.152344 234.464844 C 241.253906 235.363281 240.316406 236.21875 239.335938 237.027344 C 238.355469 237.832031 237.335938 238.589844 236.28125 239.296875 C 235.226562 240.003906 234.140625 240.660156 233.019531 241.257812 C 231.902344 241.859375 230.753906 242.402344 229.582031 242.890625 C 228.410156 243.378906 227.21875 243.808594 226.003906 244.179688 C 224.789062 244.546875 223.558594 244.859375 222.316406 245.109375 C 221.070312 245.359375 219.816406 245.546875 218.554688 245.671875 C 217.292969 245.796875 216.027344 245.863281 214.757812 245.863281 Z M 214.757812 245.863281"/></g><path fill="#FFF" d="M 205.066406 204.570312 L 192.953125 204.570312 L 192.953125 189.996094 L 188.105469 189.996094 L 188.105469 224 L 192.953125 224 L 192.953125 209.425781 L 205.066406 209.425781 L 205.066406 224 L 209.910156 224 L 209.910156 189.996094 L 205.066406 189.996094 Z M 205.066406 204.570312"/><path fill="#FFF" d="M 238.984375 209.425781 C 239.304688 209.425781 239.613281 209.367188 239.910156 209.242188 C 240.207031 209.121094 240.46875 208.945312 240.699219 208.714844 C 240.925781 208.488281 241.101562 208.226562 241.222656 207.929688 C 241.34375 207.628906 241.40625 207.320312 241.40625 207 L 241.40625 192.425781 C 241.40625 192.101562 241.34375 191.792969 241.222656 191.496094 C 241.101562 191.195312 240.925781 190.933594 240.699219 190.707031 C 240.46875 190.480469 240.207031 190.304688 239.910156 190.179688 C 239.613281 190.058594 239.304688 189.996094 238.984375 189.996094 L 222.023438 189.996094 C 221.703125 189.996094 221.394531 190.058594 221.097656 190.179688 C 220.800781 190.304688 220.539062 190.480469 220.3125 190.707031 C 220.085938 190.933594 219.910156 191.195312 219.785156 191.496094 C 219.664062 191.792969 219.601562 192.101562 219.601562 192.425781 L 219.601562 224 L 224.449219 224 L 224.449219 209.425781 L 227.886719 209.425781 L 236.875 225.214844 L 241.09375 222.789062 L 233.460938 209.425781 Z M 224.449219 204.570312 L 224.449219 194.851562 L 236.5625 194.851562 L 236.5625 204.570312 Z M 224.449219 204.570312"/></svg>